<svg xmlns="http://www.w3.org/2000/svg" width="55.422" height="55.422" viewBox="0 0 55.422 55.422"><defs><style>.a{fill:#6c759f;}</style></defs><g transform="translate(-0.004 0)"><g transform="translate(0.004 0)"><path class="a" d="M55.164,27.079l-4.38-4.38a13.381,13.381,0,0,0-3.806-2.657,14.252,14.252,0,0,0,1.3-5.929V8.045a.894.894,0,0,0-.894-.894H41.314a14.252,14.252,0,0,0-5.93,1.3,13.381,13.381,0,0,0-2.658-3.806L28.346.261a.894.894,0,0,0-1.264,0L22.7,4.641a13.38,13.38,0,0,0-2.658,3.806,14.253,14.253,0,0,0-5.928-1.3H8.049a.894.894,0,0,0-.894.894v6.067a14.252,14.252,0,0,0,1.3,5.93A13.381,13.381,0,0,0,4.646,22.7L.265,27.08a.894.894,0,0,0,0,1.264l4.38,4.38a13.381,13.381,0,0,0,3.806,2.657,14.253,14.253,0,0,0-1.3,5.928v6.067a.894.894,0,0,0,.894.894h6.067a14.252,14.252,0,0,0,5.93-1.3A13.381,13.381,0,0,0,22.7,50.78l4.38,4.38a.894.894,0,0,0,1.264,0l4.38-4.38a13.381,13.381,0,0,0,2.658-3.806,14.252,14.252,0,0,0,5.928,1.3h6.067a.894.894,0,0,0,.894-.894V41.309a14.252,14.252,0,0,0-1.3-5.93,13.381,13.381,0,0,0,3.806-2.657l4.38-4.38A.894.894,0,0,0,55.164,27.079ZM36.042,10.114a12.46,12.46,0,0,1,5.272-1.175h5.173v5.173a12.461,12.461,0,0,1-1.174,5.274,13.427,13.427,0,0,0-4.011-.614h-.358a13.356,13.356,0,0,0-5.453,1.162,13.355,13.355,0,0,0,1.162-5.453v-.358A13.423,13.423,0,0,0,36.042,10.114Zm4.9,10.446H41.3a11.661,11.661,0,0,1,3.123.433,12.614,12.614,0,0,1-1.609,1.967l-.19.19a12.437,12.437,0,0,1-8.85,3.665l-3.9,0,2.853-2.853A11.546,11.546,0,0,1,40.945,20.56Zm-6.078-6.436h0v.358a11.545,11.545,0,0,1-3.4,8.217l-2.853,2.854V21.644a12.436,12.436,0,0,1,3.665-8.849l.19-.19A12.621,12.621,0,0,1,34.43,11,11.659,11.659,0,0,1,34.866,14.124Zm-10.9-8.218,3.747-3.747,3.747,3.747A11.593,11.593,0,0,1,33.807,9.3,14.36,14.36,0,0,0,31.2,11.341l-.19.19a14.243,14.243,0,0,0-3.3,5.162,14.244,14.244,0,0,0-3.3-5.161l-.19-.19A14.362,14.362,0,0,0,21.623,9.3,11.6,11.6,0,0,1,23.968,5.905Zm-3.4,8.218A11.661,11.661,0,0,1,21,11a12.614,12.614,0,0,1,1.967,1.609l.19.19a12.436,12.436,0,0,1,3.665,8.849v3.909L23.964,22.7a11.545,11.545,0,0,1-3.4-8.223v-.358Zm2.139,9.84,2.854,2.853H21.648a12.437,12.437,0,0,1-8.85-3.665l-.19-.19A12.621,12.621,0,0,1,11,21a11.669,11.669,0,0,1,3.128-.436h.358A11.545,11.545,0,0,1,22.7,23.964ZM8.943,8.939h5.173a12.461,12.461,0,0,1,5.274,1.174,13.426,13.426,0,0,0-.614,4.011v.358a13.355,13.355,0,0,0,1.162,5.453,13.356,13.356,0,0,0-5.453-1.162h-.358a13.427,13.427,0,0,0-4.01.612,12.46,12.46,0,0,1-1.175-5.272V8.939ZM5.909,31.458,2.162,27.711l3.747-3.747A11.593,11.593,0,0,1,9.3,21.619a14.36,14.36,0,0,0,2.044,2.606l.19.19a14.243,14.243,0,0,0,5.162,3.3,14.244,14.244,0,0,0-5.161,3.3l-.19.19A14.362,14.362,0,0,0,9.3,33.8,11.6,11.6,0,0,1,5.909,31.458Zm13.479,13.85a12.461,12.461,0,0,1-5.272,1.175H8.943V41.309a12.461,12.461,0,0,1,1.174-5.274,13.426,13.426,0,0,0,4.011.614h.358a13.356,13.356,0,0,0,5.453-1.162,13.355,13.355,0,0,0-1.162,5.453V41.3A13.43,13.43,0,0,0,19.388,45.308Zm-4.9-10.446h-.358A11.665,11.665,0,0,1,11,34.429a12.614,12.614,0,0,1,1.609-1.967l.19-.19a12.437,12.437,0,0,1,8.85-3.665l3.9,0L22.7,31.458A11.546,11.546,0,0,1,14.485,34.862ZM20.564,41.3V40.94a11.545,11.545,0,0,1,3.4-8.217l2.853-2.854v3.909a12.436,12.436,0,0,1-3.665,8.849l-.19.189A12.614,12.614,0,0,1,21,44.425,11.667,11.667,0,0,1,20.564,41.3Zm10.9,8.218-3.747,3.747-3.747-3.747a11.593,11.593,0,0,1-2.345-3.387,14.359,14.359,0,0,0,2.606-2.049l.19-.19a14.245,14.245,0,0,0,3.3-5.162,14.244,14.244,0,0,0,3.3,5.161l.19.19a14.36,14.36,0,0,0,2.607,2.049A11.592,11.592,0,0,1,31.462,49.516Zm3.4-8.218a11.664,11.664,0,0,1-.433,3.123,12.614,12.614,0,0,1-1.967-1.609l-.189-.19a12.436,12.436,0,0,1-3.665-8.849v-3.9l2.853,2.853a11.545,11.545,0,0,1,3.4,8.218Zm-2.139-9.84L29.873,28.6h3.909a12.437,12.437,0,0,1,8.85,3.665l.189.19a12.62,12.62,0,0,1,1.609,1.967,11.664,11.664,0,0,1-3.128.436h-.358A11.546,11.546,0,0,1,32.727,31.458Zm13.76,15.024H41.314a12.461,12.461,0,0,1-5.274-1.174,13.426,13.426,0,0,0,.614-4.011V40.94a13.355,13.355,0,0,0-1.162-5.453,13.356,13.356,0,0,0,5.453,1.162H41.3a13.427,13.427,0,0,0,4.01-.612,12.46,12.46,0,0,1,1.175,5.272Zm3.034-15.024A11.594,11.594,0,0,1,46.134,33.8,14.355,14.355,0,0,0,44.085,31.2l-.19-.19a14.245,14.245,0,0,0-5.162-3.3,14.244,14.244,0,0,0,5.161-3.3l.19-.19a14.361,14.361,0,0,0,2.049-2.607,11.592,11.592,0,0,1,3.387,2.345l3.748,3.747Z" transform="translate(-0.004 0)"/></g></g></svg>